<?xml version="1.0" encoding="UTF-8" standalone="no"?>
<svg xmlns:dc="http://purl.org/dc/elements/1.1/" xmlns:cc="http://creativecommons.org/ns#" xmlns:rdf="http://www.w3.org/1999/02/22-rdf-syntax-ns#" xmlns:svg="http://www.w3.org/2000/svg" xmlns="http://www.w3.org/2000/svg" xmlns:xlink="http://www.w3.org/1999/xlink" id="svg8" version="1.1" viewBox="0 0 120.20786 138.80408" height="138.80408mm" width="120.20786mm">
  <defs id="defs2">
    <clipPath id="clipPath4704" clipPathUnits="userSpaceOnUse">
      <path style="opacity:1;vector-effect:none;fill:#ececec;fill-opacity:1;stroke:none;stroke-width:4;stroke-linecap:butt;stroke-linejoin:miter;stroke-miterlimit:4;stroke-dasharray:none;stroke-dashoffset:0;stroke-opacity:1" id="path4706" d="m 104.21702,133.24274 -58.103926,33.54632 -58.103927,-33.54632 0,-67.092632 58.103928,-33.546318 58.103925,33.546319 z" />
    </clipPath>
  </defs>
  <metadata id="metadata5">
    <rdf:RDF>
      <cc:Work rdf:about="">
        <dc:format>image/svg+xml</dc:format>
        <dc:type rdf:resource="http://purl.org/dc/dcmitype/StillImage" />
        <dc:title></dc:title>
      </cc:Work>
    </rdf:RDF>
  </metadata>
  <g transform="translate(-44.896072,-79.097963)" id="layer1">
    <g id="g4800">
      <text xml:space="preserve" style="font-style:normal;font-weight:normal;font-size:10.58333302px;line-height:1.25;font-family:sans-serif;letter-spacing:0px;word-spacing:0px;fill:#000000;fill-opacity:1;stroke:none;stroke-width:0.26458332" x="54.617558" y="77.395828" id="text4557"><tspan id="tspan4555" x="54.617558" y="87.051323" style="stroke-width:0.26458332" /></text>
      <g id="g4702" clip-path="url(#clipPath4704)" transform="translate(58.886909,48.803574)">
        <rect ry="2.7620537" rx="2.7804139" y="18.505152" x="-31.537804" height="163.56894" width="158.75809" id="rect4577" style="opacity:1;vector-effect:none;fill:#f2f2f2;fill-opacity:1;stroke:none;stroke-width:1.83292747;stroke-linecap:butt;stroke-linejoin:miter;stroke-miterlimit:4;stroke-dasharray:none;stroke-dashoffset:0;stroke-opacity:1" />
        <g transform="translate(84.914938,2.7547444)" id="g4634">
          <path style="fill:none;stroke:#ffffff;stroke-width:0.5;stroke-linecap:butt;stroke-linejoin:miter;stroke-miterlimit:4;stroke-dasharray:none;stroke-opacity:1" d="M -92.852442,25.313332 V 171.35645" id="path4579" />
          <use x="0" y="0" xlink:href="#path4579" id="use4611" transform="translate(20.410714)" width="100%" height="100%" />
          <use height="100%" width="100%" transform="translate(39.309524)" id="use4613" xlink:href="#path4579" y="0" x="0" />
          <use x="0" y="0" xlink:href="#path4579" id="use4619" transform="translate(55.5625)" width="100%" height="100%" />
          <use height="100%" width="100%" transform="translate(74.46131)" id="use4621" xlink:href="#path4579" y="0" x="0" />
          <use height="100%" width="100%" transform="translate(88.446429)" id="use4623" xlink:href="#path4579" y="0" x="0" />
          <use x="0" y="0" xlink:href="#path4579" id="use4625" transform="translate(107.34524)" width="100%" height="100%" />
        </g>
        <use height="100%" width="100%" transform="rotate(90,45.735116,101.08964)" id="use4636" xlink:href="#g4634" y="0" x="0" />
      </g>
      <g aria-label="ggtips" id="text4522" style="font-style:normal;font-weight:normal;font-size:21.055px;line-height:1.25;font-family:sans-serif;letter-spacing:0px;word-spacing:0px;fill:#000000;fill-opacity:1;stroke:none;stroke-width:0.526374">
        <path d="m 82.223011,177.86594 q 0,-2.05615 -0.853302,-3.18703 -0.843021,-1.13088 -2.374852,-1.13088 -1.52155,0 -2.374852,1.13088 -0.843021,1.13088 -0.843021,3.18703 0,2.04587 0.843021,3.17675 0.853302,1.13088 2.374852,1.13088 1.531831,0 2.374852,-1.13088 0.853302,-1.13088 0.853302,-3.17675 z m 1.891657,4.46184 q 0,2.94029 -1.305655,4.36932 -1.305654,1.4393 -3.999209,1.4393 -0.997233,0 -1.881377,-0.15421 -0.884144,-0.14393 -1.716884,-0.45235 v -1.84025 q 0.83274,0.45235 1.644919,0.66824 0.812179,0.2159 1.6552,0.2159 1.860815,0 2.786082,-0.97667 0.925267,-0.96639 0.925267,-2.93001 v -0.93555 q -0.586003,1.01779 -1.500989,1.52155 -0.914986,0.50376 -2.189798,0.50376 -2.117834,0 -3.413208,-1.61408 -1.295373,-1.61408 -1.295373,-4.27679 0,-2.67299 1.295373,-4.28707 1.295374,-1.61408 3.413208,-1.61408 1.274812,0 2.189798,0.50376 0.914986,0.50375 1.500989,1.52155 v -1.74773 h 1.891657 z" style="stroke-width:0.526374" id="path1231" />
        <path d="m 95.587978,177.86594 q 0,-2.05615 -0.853302,-3.18703 -0.843021,-1.13088 -2.374852,-1.13088 -1.52155,0 -2.374852,1.13088 -0.843021,1.13088 -0.843021,3.18703 0,2.04587 0.843021,3.17675 0.853302,1.13088 2.374852,1.13088 1.531831,0 2.374852,-1.13088 0.853302,-1.13088 0.853302,-3.17675 z m 1.891657,4.46184 q 0,2.94029 -1.305655,4.36932 -1.305654,1.4393 -3.999209,1.4393 -0.997232,0 -1.881376,-0.15421 -0.884144,-0.14393 -1.716884,-0.45235 v -1.84025 q 0.83274,0.45235 1.644919,0.66824 0.812178,0.2159 1.655199,0.2159 1.860815,0 2.786082,-0.97667 0.925267,-0.96639 0.925267,-2.93001 v -0.93555 q -0.586002,1.01779 -1.500989,1.52155 -0.914986,0.50376 -2.189798,0.50376 -2.117833,0 -3.413207,-1.61408 -1.295374,-1.61408 -1.295374,-4.27679 0,-2.67299 1.295374,-4.28707 1.295374,-1.61408 3.413207,-1.61408 1.274812,0 2.189798,0.50376 0.914987,0.50375 1.500989,1.52155 v -1.74773 h 1.891657 z" style="stroke-width:0.526374" id="path1233" />
        <path d="m 103.24713,168.9731 v 3.26927 h 3.8964 v 1.47015 h -3.8964 v 6.25069 q 0,1.40846 0.38039,1.80941 0.39067,0.40095 1.57295,0.40095 h 1.94306 v 1.58324 h -1.94306 q -2.18979,0 -3.02253,-0.81218 -0.83275,-0.82246 -0.83275,-2.98142 v -6.25069 h -1.387896 v -1.47015 h 1.387896 v -3.26927 z" style="stroke-width:0.526374" id="path1235" />
        <path d="m 109.63148,172.24237 h 1.89165 v 11.51444 h -1.89165 z m 0,-4.4824 h 1.89165 v 2.39541 h -1.89165 z" style="stroke-width:0.526374" id="path1237" />
        <path d="m 117.31119,182.02964 v 6.10676 h -1.90194 v -15.89403 h 1.90194 v 1.74773 q 0.59629,-1.02808 1.50099,-1.52155 0.91499,-0.50376 2.17952,-0.50376 2.09727,0 3.40292,1.66548 1.31594,1.66548 1.31594,4.3796 0,2.71412 -1.31594,4.3796 -1.30565,1.66548 -3.40292,1.66548 -1.26453,0 -2.17952,-0.49348 -0.9047,-0.50376 -1.50099,-1.53183 z m 6.43575,-4.01977 q 0,-2.08699 -0.86358,-3.26928 -0.85331,-1.19256 -2.3543,-1.19256 -1.50098,0 -2.36457,1.19256 -0.8533,1.18229 -0.8533,3.26928 0,2.08699 0.8533,3.27956 0.86359,1.18228 2.36457,1.18228 1.50099,0 2.3543,-1.18228 0.86358,-1.19257 0.86358,-3.27956 z" style="stroke-width:0.526374" id="path1239" />
        <path d="m 136.18664,172.58164 v 1.78885 q -0.8019,-0.41123 -1.66548,-0.61685 -0.86358,-0.20561 -1.78885,-0.20561 -1.40846,0 -2.11784,0.43179 -0.69909,0.43179 -0.69909,1.29537 0,0.65797 0.50376,1.03836 0.50376,0.3701 2.02531,0.70937 l 0.64768,0.14393 q 2.01503,0.43179 2.85805,1.22341 0.8533,0.78133 0.8533,2.1898 0,1.60379 -1.27481,2.53934 -1.26453,0.93555 -3.48517,0.93555 -0.92527,0 -1.93278,-0.18506 -0.99723,-0.17477 -2.10755,-0.5346 v -1.95334 q 1.04863,0.54488 2.06643,0.82246 1.01779,0.2673 2.01502,0.2673 1.3365,0 2.05615,-0.45235 0.71965,-0.46263 0.71965,-1.29537 0,-0.77106 -0.52432,-1.18229 -0.51403,-0.41123 -2.27204,-0.79162 l -0.65797,-0.15421 q -1.75801,-0.3701 -2.53934,-1.13088 -0.78134,-0.77106 -0.78134,-2.10755 0,-1.62436 1.15145,-2.5085 1.15144,-0.88415 3.26927,-0.88415 1.04864,0 1.9739,0.15421 0.92527,0.15421 1.70661,0.46264 z" style="stroke-width:0.526374" id="path1241" />
      </g>
      <path style="fill:none;stroke:#000000;stroke-width:2;stroke-linecap:butt;stroke-linejoin:miter;stroke-miterlimit:4;stroke-dasharray:none;stroke-opacity:1" d="m 50.949405,160.21726 47.625,-31.75 17.764885,17.19792 46.76464,-30.7115" id="path4548" />
      <circle r="5.4806547" cy="133.19197" cx="136.939" id="use4544" style="opacity:1;vector-effect:none;fill:#ae751e;fill-opacity:1;stroke:none;stroke-width:4.63999987;stroke-linecap:butt;stroke-linejoin:miter;stroke-miterlimit:4;stroke-dasharray:none;stroke-dashoffset:0;stroke-opacity:1" />
      <circle style="opacity:1;vector-effect:none;fill:#f2dbb8;fill-opacity:1;stroke:none;stroke-width:4.63999987;stroke-linecap:butt;stroke-linejoin:miter;stroke-miterlimit:4;stroke-dasharray:none;stroke-dashoffset:0;stroke-opacity:1" id="path4524" cx="51.516373" cy="160.78424" r="5.4806547" />
      <circle r="5.4806547" cy="145.28722" cx="73.816971" id="use4538" style="opacity:1;vector-effect:none;fill:#eac286;fill-opacity:1;stroke:none;stroke-width:4.63999987;stroke-linecap:butt;stroke-linejoin:miter;stroke-miterlimit:4;stroke-dasharray:none;stroke-dashoffset:0;stroke-opacity:1" />
      <circle r="5.4806547" cy="129.79019" cx="98.007446" id="use4540" style="opacity:1;vector-effect:none;fill:#dd9c39;fill-opacity:1;stroke:none;stroke-width:4.63999987;stroke-linecap:butt;stroke-linejoin:miter;stroke-miterlimit:4;stroke-dasharray:none;stroke-dashoffset:0;stroke-opacity:1" />
      <circle r="5.4806547" cy="145.85417" cx="116.15029" id="use4542" style="opacity:1;vector-effect:none;fill:#c28221;fill-opacity:1;stroke:none;stroke-width:4.63999987;stroke-linecap:butt;stroke-linejoin:miter;stroke-miterlimit:4;stroke-dasharray:none;stroke-dashoffset:0;stroke-opacity:1" />
      <circle r="5.4806547" cy="119.58483" cx="156.97173" id="use4546" style="opacity:1;vector-effect:none;fill:#8a5c18;fill-opacity:1;stroke:none;stroke-width:4.63999987;stroke-linecap:butt;stroke-linejoin:miter;stroke-miterlimit:4;stroke-dasharray:none;stroke-dashoffset:0;stroke-opacity:1" />
      <g id="g4575" transform="translate(82.246799,71.104074)">
        <path id="rect4550" d="m 27.592334,46.212978 c -1.675191,0 -3.024106,1.348396 -3.024106,3.023587 v 6.772196 l -3.326926,2.677358 3.326926,2.676837 v 6.772199 c 0,1.675188 1.348915,3.024102 3.024106,3.024102 h 44.600894 c 1.675191,0 3.024105,-1.348914 3.024105,-3.024102 v -18.89859 c 0,-1.675191 -1.348914,-3.023587 -3.024105,-3.023587 z" style="opacity:1;vector-effect:none;fill:#64ade9;fill-opacity:1;stroke:none;stroke-width:2.1046977;stroke-linecap:butt;stroke-linejoin:miter;stroke-miterlimit:4;stroke-dasharray:none;stroke-dashoffset:0;stroke-opacity:1" />
        <g aria-label="X: 23.45 Y: 12.31" id="text4561" style="font-style:normal;font-weight:normal;font-size:7.94846px;line-height:1.25;font-family:sans-serif;letter-spacing:0px;word-spacing:0px;fill:#000000;fill-opacity:1;stroke:none;stroke-width:0.198711">
          <path d="m 31.463037,50.813344 h 0.842195 l 1.439882,2.154 1.447643,-2.154 h 0.842195 l -1.862919,2.782736 1.987114,3.01172 H 35.316952 L 33.686897,54.143312 32.0452,56.6078 h -0.846076 l 2.068616,-3.093223 z" style="stroke-width:0.198711" id="path1262" />
          <path d="m 37.338996,55.622005 h 0.818908 V 56.6078 h -0.818908 z m 0,-3.124272 h 0.818908 v 0.985795 h -0.818908 z" style="stroke-width:0.198711" id="path1264" />
          <path d="m 43.137333,55.948016 h 2.736163 V 56.6078 H 42.19423 v -0.659784 q 0.446324,-0.461849 1.214778,-1.238066 0.772336,-0.780097 0.970271,-1.0052 0.376465,-0.423038 0.523946,-0.714119 0.151362,-0.294963 0.151362,-0.578282 0,-0.461848 -0.326011,-0.75293 -0.322129,-0.291081 -0.842194,-0.291081 -0.368703,0 -0.780098,0.128076 -0.407514,0.128076 -0.873244,0.388108 v -0.791741 q 0.473492,-0.190173 0.884887,-0.2872 0.411395,-0.09703 0.75293,-0.09703 0.900411,0 1.436001,0.450206 0.535589,0.450205 0.535589,1.203135 0,0.35706 -0.135838,0.67919 -0.131957,0.318249 -0.485135,0.75293 -0.09703,0.112551 -0.617092,0.652022 -0.520065,0.535589 -1.467049,1.501979 z" style="stroke-width:0.198711" id="path1266" />
          <path d="m 49.894297,53.483528 q 0.562757,0.120314 0.877125,0.50066 0.318249,0.380346 0.318249,0.939222 0,0.857719 -0.589925,1.32733 -0.589924,0.469611 -1.676627,0.469611 -0.364822,0 -0.75293,-0.07374 -0.384227,-0.06986 -0.795622,-0.213459 V 55.67634 q 0.326011,0.190173 0.714119,0.2872 0.388108,0.09703 0.811146,0.09703 0.737406,0 1.121633,-0.291081 0.388108,-0.291081 0.388108,-0.846076 0,-0.512303 -0.36094,-0.799503 -0.35706,-0.291081 -0.997439,-0.291081 h -0.675308 v -0.64426 h 0.706357 q 0.578281,0 0.884887,-0.228984 0.306605,-0.232865 0.306605,-0.667546 0,-0.446325 -0.318248,-0.683071 -0.314368,-0.240627 -0.904293,-0.240627 -0.322129,0 -0.690832,0.06986 -0.368703,0.06986 -0.811147,0.21734 v -0.698594 q 0.446325,-0.124195 0.834433,-0.186292 0.39199,-0.0621 0.737406,-0.0621 0.892649,0 1.412714,0.407514 0.520065,0.403632 0.520065,1.094465 0,0.481254 -0.275557,0.815027 -0.275557,0.329892 -0.783979,0.457968 z" style="stroke-width:0.198711" id="path1268" />
          <path d="m 52.576125,55.622005 h 0.818908 V 56.6078 h -0.818908 z" style="stroke-width:0.198711" id="path1270" />
          <path d="m 57.25671,51.496414 -1.979352,3.093223 h 1.979352 z m -0.205697,-0.68307 h 0.985795 v 3.776293 h 0.82667 v 0.652022 h -0.82667 V 56.6078 H 57.25671 v -1.366141 h -2.615849 v -0.756812 z" style="stroke-width:0.198711" id="path1272" />
          <path d="m 60.167522,50.813344 h 3.077699 v 0.659784 h -2.359699 v 1.420476 q 0.170768,-0.05822 0.341536,-0.08538 0.170767,-0.03105 0.341535,-0.03105 0.970271,0 1.536909,0.531708 0.566638,0.531709 0.566638,1.439882 0,0.935341 -0.582163,1.455406 -0.582162,0.516184 -1.641698,0.516184 -0.364821,0 -0.745167,-0.0621 -0.376465,-0.0621 -0.780098,-0.186292 v -0.78786 q 0.349297,0.190173 0.721881,0.283319 0.372584,0.09315 0.78786,0.09315 0.671427,0 1.063417,-0.353179 0.391989,-0.353178 0.391989,-0.958627 0,-0.605449 -0.391989,-0.958627 -0.39199,-0.353179 -1.063417,-0.353179 -0.314368,0 -0.628735,0.06986 -0.310487,0.06986 -0.636498,0.21734 z" style="stroke-width:0.198711" id="path1274" />
          <path d="m 30.946853,60.748917 h 0.842195 l 1.606768,2.382985 1.595125,-2.382985 h 0.842195 l -2.049212,3.035007 v 2.759449 h -0.787859 v -2.759449 z" style="stroke-width:0.198711" id="path1276" />
          <path d="m 35.693417,65.557578 h 0.818908 v 0.985795 h -0.818908 z m 0,-3.124271 h 0.818908 v 0.985795 h -0.818908 z" style="stroke-width:0.198711" id="path1278" />
          <path d="m 40.952284,65.883589 h 1.280757 v -4.420553 l -1.393309,0.279438 v -0.714119 l 1.385547,-0.279438 h 0.783978 v 5.134672 h 1.280758 v 0.659784 h -3.337731 z" style="stroke-width:0.198711" id="path1280" />
          <path d="m 46.548804,65.883589 h 2.736163 v 0.659784 h -3.679266 v -0.659784 q 0.446324,-0.461849 1.214779,-1.238065 0.772335,-0.780098 0.97027,-1.005201 0.376465,-0.423038 0.523946,-0.714119 0.151363,-0.294962 0.151363,-0.578281 0,-0.461849 -0.326011,-0.75293 -0.32213,-0.291081 -0.842195,-0.291081 -0.368703,0 -0.780098,0.128076 -0.407513,0.128075 -0.873243,0.388108 v -0.791741 q 0.473492,-0.190173 0.884887,-0.2872 0.411394,-0.09703 0.75293,-0.09703 0.900411,0 1.436,0.450205 0.535589,0.450206 0.535589,1.203136 0,0.35706 -0.135837,0.679189 -0.131957,0.318249 -0.485136,0.75293 -0.09703,0.112552 -0.617092,0.652022 -0.520065,0.53559 -1.467049,1.501979 z" style="stroke-width:0.198711" id="path1282" />
          <path d="m 50.930546,65.557578 h 0.818909 v 0.985795 h -0.818909 z" style="stroke-width:0.198711" id="path1284" />
          <path d="m 55.832353,63.419102 q 0.562757,0.120313 0.877125,0.500659 0.318249,0.380346 0.318249,0.939222 0,0.85772 -0.589925,1.327331 -0.589924,0.46961 -1.676627,0.46961 -0.364822,0 -0.75293,-0.07374 -0.384227,-0.06986 -0.795622,-0.21346 v -0.756811 q 0.326011,0.190173 0.714119,0.2872 0.388108,0.09703 0.811146,0.09703 0.737406,0 1.121633,-0.291081 0.388108,-0.291081 0.388108,-0.846076 0,-0.512303 -0.36094,-0.799503 -0.35706,-0.291081 -0.997439,-0.291081 H 54.213942 V 63.12414 h 0.706357 q 0.578281,0 0.884887,-0.228984 0.306605,-0.232865 0.306605,-0.667547 0,-0.446324 -0.318248,-0.68307 -0.314368,-0.240627 -0.904293,-0.240627 -0.322129,0 -0.690832,0.06986 -0.368703,0.06986 -0.811147,0.217341 v -0.698595 q 0.446325,-0.124195 0.834433,-0.186292 0.39199,-0.0621 0.737406,-0.0621 0.892649,0 1.412714,0.407514 0.520065,0.403632 0.520065,1.094465 0,0.481254 -0.275557,0.815027 -0.275557,0.329892 -0.783979,0.457968 z" style="stroke-width:0.198711" id="path1286" />
          <path d="m 58.65002,65.883589 h 1.280757 v -4.420553 l -1.393309,0.279438 v -0.714119 l 1.385547,-0.279438 h 0.783978 v 5.134672 h 1.280757 v 0.659784 h -3.33773 z" style="stroke-width:0.198711" id="path1288" />
        </g>
      </g>
      <path style="opacity:1;vector-effect:none;fill:none;fill-opacity:1;stroke:#000000;stroke-width:4;stroke-linecap:butt;stroke-linejoin:miter;stroke-miterlimit:4;stroke-dasharray:none;stroke-dashoffset:0;stroke-opacity:1" id="path4518" d="M 163.10393,182.04632 105,215.59264 46.896073,182.04632 l 0,-67.09264 L 105,81.407364 163.10393,114.95368 Z" />
    </g>
  </g>
</svg>
